<svg preserveAspectRatio="none" width="100%" height="100%" overflow="visible" style="display: block;" viewBox="0 0 4.74065 5.25471" fill="none" xmlns="http://www.w3.org/2000/svg">
<path id="Vector" d="M1.92482 2.33035C2.20469 2.33035 2.41031 2.27323 2.53025 2.16471C2.6502 2.0619 2.71875 1.89055 2.71875 1.64495C2.71875 1.39935 2.6502 1.23943 2.53025 1.1309C2.41031 1.02809 2.20469 0.97669 1.92482 0.97669H1.35366V2.32464H1.92482M1.35366 3.26706V5.25471H0V0H2.06761C2.75872 0 3.26133 0.114233 3.58689 0.34841C3.91245 0.576876 4.0724 0.94242 4.0724 1.44504C4.0724 1.79345 3.99244 2.07332 3.82109 2.30179C3.65545 2.51883 3.40413 2.69018 3.06143 2.79299C3.24991 2.83868 3.40984 2.93578 3.55834 3.08428C3.70684 3.23279 3.85536 3.45554 4.00386 3.76397L4.74065 5.249H3.30131L2.66161 3.94674C2.53595 3.68972 2.40458 3.50123 2.2675 3.40985C2.13614 3.31275 1.95908 3.26135 1.73633 3.26135H1.35366" fill="var(--fill-0, white)"/>
</svg>
