<svg preserveAspectRatio="none" width="100%" height="100%" overflow="visible" style="display: block;" viewBox="0 0 30.563 29.3635" fill="none" xmlns="http://www.w3.org/2000/svg">
<path id="Vector" d="M30.5573 5.4489C30.5573 6.78542 30.146 7.83637 29.335 8.60173C28.5182 9.3728 27.5644 9.75548 26.462 9.75548C25.1541 9.75548 24.0003 9.11577 23.0179 7.83066C22.5553 7.25949 22.1783 6.84254 21.8813 6.59123C21.5843 6.33992 21.1616 6.20855 20.6076 6.20855C18.8142 6.20855 17.4205 7.17953 16.421 9.12148C15.4214 11.0634 14.9245 13.0739 14.9245 15.1701V21.1673C14.9245 23.0922 15.1701 24.4173 15.667 25.1255C16.1582 25.8395 17.4605 26.1936 19.5738 26.1936H21.3958V29.3635H0V26.1936H1.79346C3.724 26.1936 4.90628 25.828 5.34037 25.0855C5.77445 24.3487 5.99722 23.0407 5.99722 21.1616V11.0977C5.99722 9.56128 5.84301 8.45894 5.53458 7.79067C5.22615 7.12812 4.66642 6.68262 3.86107 6.46557C3.06144 6.24853 1.77061 6.1343 0.00571722 6.1343V2.96434L13.4395 0C13.7822 1.17089 14.1077 3.66687 14.4047 7.47653C15.0502 6.12288 15.8955 4.88345 16.9407 3.75255C17.9859 2.62735 19.1568 1.72491 20.4534 1.03381C21.7499 0.342697 23.0807 0 24.4344 0C26.3192 0 27.81 0.531182 28.9123 1.58783C30.0147 2.64449 30.563 3.92961 30.563 5.44319L30.5573 5.4489Z" fill="var(--fill-0, white)"/>
</svg>
