<svg preserveAspectRatio="none" width="100%" height="100%" overflow="visible" style="display: block;" viewBox="0 0 30.7001 30.4887" fill="none" xmlns="http://www.w3.org/2000/svg">
<path id="Vector" d="M30.7001 14.1877H9.50989C9.53274 14.6275 9.59554 15.5585 9.69835 16.9807C9.80116 18.4029 10.121 19.8651 10.6636 21.3558C11.2005 22.8466 12.1315 24.1031 13.4566 25.1255C14.776 26.1479 16.5523 26.6619 18.7799 26.6619C19.9965 26.6619 21.4643 26.3535 23.1892 25.7366C24.9084 25.1141 26.4049 23.9203 27.6672 22.1554L30.3517 23.9775C27.6386 28.3183 23.3378 30.4887 17.4319 30.4887C14.7874 30.4887 12.3828 30.106 10.2124 29.3521C8.04199 28.5925 6.19714 27.5358 4.68355 26.1822C3.16997 24.8228 2.01049 23.2292 1.20515 21.3958C0.399806 19.5567 0 17.5804 0 15.4671C0 12.6913 0.668279 10.1153 2.01623 7.75069C3.35846 5.38608 5.28327 3.50123 7.78497 2.10188C10.2867 0.702532 13.1482 0 16.3639 0C19.5795 0 22.1726 0.679684 24.343 2.03334C26.5134 3.39271 28.1184 5.14619 29.1465 7.30518C30.1803 9.46418 30.6943 11.7603 30.6943 14.1934L30.7001 14.1877ZM22.1554 11.0177C22.1554 5.78018 20.0878 3.16425 15.9526 3.16425C13.9535 3.16425 12.4228 3.88391 11.3547 5.33467C10.2867 6.77972 9.69266 8.67598 9.57843 11.0177H22.1554Z" fill="var(--fill-0, white)"/>
</svg>
