<svg preserveAspectRatio="none" width="100%" height="100%" overflow="visible" style="display: block;" viewBox="0 0 35.2122 30.146" fill="none" xmlns="http://www.w3.org/2000/svg">
<path id="Vector" d="M35.2122 22.0812C35.2122 23.829 34.8524 25.3197 34.1442 26.5477C33.4302 27.7757 32.4764 28.6838 31.2712 29.2664C30.0661 29.8547 28.701 30.146 27.1874 30.146C25.2569 30.146 23.6462 29.6891 22.361 28.7867C21.0759 27.8785 20.3106 26.7933 20.0536 25.5253C16.221 28.6039 12.36 30.146 8.47605 30.146C5.9972 30.146 3.96386 29.5406 2.37603 28.3354C0.793903 27.1303 0 25.5367 0 23.5605C0 21.927 0.42265 20.4534 1.27368 19.134C2.12472 17.8146 3.36985 16.638 5.0148 15.6042C6.65975 14.5704 8.61312 13.6565 10.8921 12.8626C13.1653 12.0687 15.9983 11.2405 19.4024 10.3666V8.40182C19.4024 6.76829 19.0197 5.48888 18.2487 4.55789C17.4776 3.62689 16.0611 3.16425 13.9935 3.16425C12.2229 3.16425 10.9492 3.52979 10.1667 4.26659C9.38422 5.0034 8.87016 6.11717 8.61884 7.6079C8.43607 8.66456 8.0991 9.53272 7.60219 10.2067C7.10528 10.8864 6.08288 11.2234 4.51789 11.2234C3.55262 11.2234 2.70158 10.9492 1.97049 10.4009C1.23369 9.85258 0.868146 9.03581 0.868146 7.95631C0.868146 5.82016 2.02762 3.95817 4.34655 2.37604C6.66547 0.788206 10.2238 0 15.0216 0C20.0764 0 23.5491 0.851034 25.4453 2.54739C27.3416 4.24946 28.2897 6.52269 28.2897 9.3728V20.2592C28.2897 21.6357 28.324 22.6466 28.3925 23.2921C28.4611 23.9318 28.6496 24.423 28.9637 24.7542C29.2721 25.0855 29.7576 25.2512 30.4259 25.2512C31.0199 25.2512 31.5454 24.9427 31.9909 24.3202C32.4364 23.7033 32.6649 22.9551 32.6649 22.0812H35.2122ZM19.3967 22.3611V13.8165C15.033 15.193 12.2572 16.5409 11.0806 17.866C9.89254 19.1854 9.30425 20.4819 9.30425 21.7442C9.30425 22.8009 9.6241 23.6462 10.2695 24.2916C10.9149 24.9313 11.8174 25.2569 12.994 25.2569C14.2563 25.2569 15.37 24.9941 16.3353 24.463C17.3005 23.9318 18.3229 23.2349 19.4024 22.3611H19.3967Z" fill="var(--fill-0, white)"/>
</svg>
