<svg preserveAspectRatio="none" width="100%" height="100%" overflow="visible" style="display: block;" viewBox="0 0 35.7606 28.2326" fill="none" xmlns="http://www.w3.org/2000/svg">
<path id="Vector" d="M35.7548 28.2326H16.4952V25.0627H17.7004C18.6656 25.0627 19.4481 24.9827 20.0421 24.8228C20.6418 24.6629 20.9389 24.2916 20.9389 23.7204C20.9389 23.3549 20.4248 22.6181 19.391 21.51L15.9469 17.8603L11.5718 21.51C10.4466 22.4068 9.88113 23.1893 9.88113 23.8518C9.88113 24.383 10.1838 24.7143 10.795 24.8513C11.4061 24.9884 12.3143 25.0627 13.5366 25.0627V28.2326H0.137074V25.0627C1.30796 24.8513 2.55309 24.343 3.87819 23.5262C5.19758 22.7095 7.05386 21.293 9.44132 19.2711L13.8165 15.5128L5.44317 6.55696C4.15806 5.15761 3.20993 4.26088 2.59879 3.86678C1.98764 3.47839 1.12519 3.24992 0 3.17567V0.00571286H18.9169V3.17567C17.7461 3.17567 16.9122 3.23279 16.421 3.34702C15.9241 3.46125 15.6785 3.78111 15.6785 4.31229C15.6785 4.67783 16.1468 5.33467 17.0892 6.27709L20.4648 9.89256L24.1145 6.48271C24.5943 6.04292 24.9713 5.70593 25.234 5.46604C25.4968 5.22615 25.7024 5.00911 25.8395 4.8092C25.9765 4.61501 26.0451 4.40368 26.0451 4.1695C26.0451 3.87249 25.7823 3.6326 25.2569 3.44983C24.7257 3.26706 23.8975 3.16996 22.7723 3.16996V0H35.4864V3.16996C34.5212 3.16996 33.4416 3.52979 32.2479 4.23804C31.0542 4.95199 29.2379 6.38561 26.8047 8.54461L22.6352 12.1944L32.4535 22.8408C33.3274 23.7833 34.4298 24.5201 35.7606 25.0512V28.2212L35.7548 28.2326Z" fill="var(--fill-0, white)"/>
</svg>
