<svg preserveAspectRatio="none" width="100%" height="100%" overflow="visible" style="display: block;" viewBox="0 0 24 24.0071" fill="none" xmlns="http://www.w3.org/2000/svg">
<g id="Group">
<g id="Vector">
<path d="M12.0273 0H11.9727C5.36036 0 0 5.36193 0 11.9762V12.0309C0 18.6451 5.36036 24.0071 11.9727 24.0071H12.0273C18.6396 24.0071 24 18.6451 24 12.0309V11.9762C24 5.36193 18.6396 0 12.0273 0Z" fill="var(--fill-0, #272727)"/>
<path d="M12.0273 0H11.9727C5.36036 0 0 5.36193 0 11.9762V12.0309C0 18.6451 5.36036 24.0071 11.9727 24.0071H12.0273C18.6396 24.0071 24 18.6451 24 12.0309V11.9762C24 5.36193 18.6396 0 12.0273 0Z" fill="var(--fill-1, white)" fill-opacity="0.35"/>
</g>
<g id="Group_2">
<g id="Vector_2">
<path d="M5.72375 7.97934C5.40759 7.6858 5.25037 7.32245 5.25037 6.89014C5.25037 6.45782 5.40843 6.07849 5.72375 5.78411C6.0399 5.49057 6.44687 5.34338 6.94548 5.34338C7.4441 5.34338 7.8351 5.49057 8.15041 5.78411C8.46656 6.07765 8.62379 6.44689 8.62379 6.89014C8.62379 7.33339 8.46572 7.6858 8.15041 7.97934C7.83425 8.27288 7.43317 8.42006 6.94548 8.42006C6.4578 8.42006 6.0399 8.27288 5.72375 7.97934ZM8.35809 9.66319V18.6628H5.51522V9.66319H8.35809Z" fill="var(--fill-0, #272727)"/>
<path d="M5.72375 7.97934C5.40759 7.6858 5.25037 7.32245 5.25037 6.89014C5.25037 6.45782 5.40843 6.07849 5.72375 5.78411C6.0399 5.49057 6.44687 5.34338 6.94548 5.34338C7.4441 5.34338 7.8351 5.49057 8.15041 5.78411C8.46656 6.07765 8.62379 6.44689 8.62379 6.89014C8.62379 7.33339 8.46572 7.6858 8.15041 7.97934C7.83425 8.27288 7.43317 8.42006 6.94548 8.42006C6.4578 8.42006 6.0399 8.27288 5.72375 7.97934ZM8.35809 9.66319V18.6628H5.51522V9.66319H8.35809Z" fill="var(--fill-1, black)" fill-opacity="0.35"/>
</g>
<g id="Vector_3">
<path d="M17.8213 10.5523C18.441 11.2252 18.7504 12.1487 18.7504 13.3245V18.5039H16.0505V13.6896C16.0505 13.0966 15.8966 12.6357 15.5897 12.3077C15.2828 11.9796 14.8691 11.8148 14.3511 11.8148C13.8332 11.8148 13.4195 11.9788 13.1126 12.3077C12.8057 12.6357 12.6518 13.0966 12.6518 13.6896V18.5039H9.93591V9.63807H12.6518V10.8139C12.9267 10.422 13.2976 10.1124 13.7634 9.88451C14.2292 9.65658 14.7531 9.54303 15.3358 9.54303C16.3734 9.54303 17.2024 9.87946 17.8213 10.5515V10.5523Z" fill="var(--fill-0, #272727)"/>
<path d="M17.8213 10.5523C18.441 11.2252 18.7504 12.1487 18.7504 13.3245V18.5039H16.0505V13.6896C16.0505 13.0966 15.8966 12.6357 15.5897 12.3077C15.2828 11.9796 14.8691 11.8148 14.3511 11.8148C13.8332 11.8148 13.4195 11.9788 13.1126 12.3077C12.8057 12.6357 12.6518 13.0966 12.6518 13.6896V18.5039H9.93591V9.63807H12.6518V10.8139C12.9267 10.422 13.2976 10.1124 13.7634 9.88451C14.2292 9.65658 14.7531 9.54303 15.3358 9.54303C16.3734 9.54303 17.2024 9.87946 17.8213 10.5515V10.5523Z" fill="var(--fill-1, black)" fill-opacity="0.35"/>
</g>
</g>
</g>
</svg>
