<svg preserveAspectRatio="none" width="100%" height="100%" overflow="visible" style="display: block;" viewBox="0 0 24 24.0071" fill="none" xmlns="http://www.w3.org/2000/svg">
<g id="Group">
<g id="Vector">
<path d="M12.0273 0H11.9727C5.36035 0 0 5.36193 0 11.9762V12.0309C0 18.6451 5.36035 24.0071 11.9727 24.0071H12.0273C18.6397 24.0071 24 18.6451 24 12.0309V11.9762C24 5.36193 18.6397 0 12.0273 0Z" fill="var(--fill-0, #272727)"/>
<path d="M12.0273 0H11.9727C5.36035 0 0 5.36193 0 11.9762V12.0309C0 18.6451 5.36035 24.0071 11.9727 24.0071H12.0273C18.6397 24.0071 24 18.6451 24 12.0309V11.9762C24 5.36193 18.6397 0 12.0273 0Z" fill="var(--fill-1, white)" fill-opacity="0.35"/>
</g>
<g id="Group_2">
<g id="Vector_2">
<path d="M15.7136 4.88416H8.28735C6.23571 4.88416 4.56665 6.55371 4.56665 8.60595V15.4019C4.56665 17.4542 6.23571 19.1237 8.28735 19.1237H15.7136C17.7653 19.1237 19.4343 17.4542 19.4343 15.4019V8.60595C19.4343 6.55371 17.7653 4.88416 15.7136 4.88416ZM5.8792 8.60595C5.8792 7.27788 6.95967 6.19709 8.28735 6.19709H15.7136C17.0413 6.19709 18.1218 7.27788 18.1218 8.60595V15.4019C18.1218 16.73 17.0413 17.8108 15.7136 17.8108H8.28735C6.95967 17.8108 5.8792 16.73 5.8792 15.4019V8.60595Z" fill="var(--fill-0, #272727)"/>
<path d="M15.7136 4.88416H8.28735C6.23571 4.88416 4.56665 6.55371 4.56665 8.60595V15.4019C4.56665 17.4542 6.23571 19.1237 8.28735 19.1237H15.7136C17.7653 19.1237 19.4343 17.4542 19.4343 15.4019V8.60595C19.4343 6.55371 17.7653 4.88416 15.7136 4.88416ZM5.8792 8.60595C5.8792 7.27788 6.95967 6.19709 8.28735 6.19709H15.7136C17.0413 6.19709 18.1218 7.27788 18.1218 8.60595V15.4019C18.1218 16.73 17.0413 17.8108 15.7136 17.8108H8.28735C6.95967 17.8108 5.8792 16.73 5.8792 15.4019V8.60595Z" fill="var(--fill-1, black)" fill-opacity="0.35"/>
</g>
<g id="Vector_3">
<path d="M12.0008 15.4648C13.9087 15.4648 15.4617 13.9122 15.4617 12.0029C15.4617 10.0937 13.9095 8.54102 12.0008 8.54102C10.0921 8.54102 8.53992 10.0937 8.53992 12.0029C8.53992 13.9122 10.0921 15.4648 12.0008 15.4648ZM12.0008 9.85479C13.1855 9.85479 14.1491 10.8187 14.1491 12.0038C14.1491 13.1888 13.1855 14.1527 12.0008 14.1527C10.8161 14.1527 9.85246 13.1888 9.85246 12.0038C9.85246 10.8187 10.8161 9.85479 12.0008 9.85479Z" fill="var(--fill-0, #272727)"/>
<path d="M12.0008 15.4648C13.9087 15.4648 15.4617 13.9122 15.4617 12.0029C15.4617 10.0937 13.9095 8.54102 12.0008 8.54102C10.0921 8.54102 8.53992 10.0937 8.53992 12.0029C8.53992 13.9122 10.0921 15.4648 12.0008 15.4648ZM12.0008 9.85479C13.1855 9.85479 14.1491 10.8187 14.1491 12.0038C14.1491 13.1888 13.1855 14.1527 12.0008 14.1527C10.8161 14.1527 9.85246 13.1888 9.85246 12.0038C9.85246 10.8187 10.8161 9.85479 12.0008 9.85479Z" fill="var(--fill-1, black)" fill-opacity="0.35"/>
</g>
<g id="Vector_4">
<path d="M15.7818 9.10045C16.2956 9.10045 16.7143 8.68243 16.7143 8.16769C16.7143 7.65295 16.2964 7.23492 15.7818 7.23492C15.2673 7.23492 14.8494 7.65295 14.8494 8.16769C14.8494 8.68243 15.2673 9.10045 15.7818 9.10045Z" fill="var(--fill-0, #272727)"/>
<path d="M15.7818 9.10045C16.2956 9.10045 16.7143 8.68243 16.7143 8.16769C16.7143 7.65295 16.2964 7.23492 15.7818 7.23492C15.2673 7.23492 14.8494 7.65295 14.8494 8.16769C14.8494 8.68243 15.2673 9.10045 15.7818 9.10045Z" fill="var(--fill-1, black)" fill-opacity="0.35"/>
</g>
</g>
</g>
</svg>
