<svg preserveAspectRatio="none" width="100%" height="100%" overflow="visible" style="display: block;" viewBox="0 0 24 24.0071" fill="none" xmlns="http://www.w3.org/2000/svg">
<g id="Group">
<g id="Vector">
<path d="M12.0273 0H11.9727C5.36035 0 0 5.36193 0 11.9762V12.0309C0 18.6451 5.36035 24.0071 11.9727 24.0071H12.0273C18.6397 24.0071 24 18.6451 24 12.0309V11.9762C24 5.36193 18.6397 0 12.0273 0Z" fill="var(--fill-0, #272727)"/>
<path d="M12.0273 0H11.9727C5.36035 0 0 5.36193 0 11.9762V12.0309C0 18.6451 5.36035 24.0071 11.9727 24.0071H12.0273C18.6397 24.0071 24 18.6451 24 12.0309V11.9762C24 5.36193 18.6397 0 12.0273 0Z" fill="var(--fill-1, white)" fill-opacity="0.35"/>
</g>
<g id="Vector_2">
<path d="M17.8013 8.68502V10.9517C17.4053 10.913 16.8907 10.8231 16.3215 10.6145C15.5782 10.342 15.0249 9.96935 14.6625 9.68086V14.2622L14.6532 14.2479C14.6591 14.3388 14.6625 14.4313 14.6625 14.5247C14.6625 16.7998 12.8118 18.6519 10.5365 18.6519C8.2612 18.6519 6.41052 16.7998 6.41052 14.5247C6.41052 12.2495 8.2612 10.3966 10.5365 10.3966C10.7593 10.3966 10.978 10.4143 11.1915 10.4488V12.6827C10.9864 12.6095 10.7661 12.57 10.5365 12.57C9.4594 12.57 8.5824 13.4464 8.5824 14.5247C8.5824 15.6029 9.4594 16.4793 10.5365 16.4793C11.6136 16.4793 12.4906 15.6021 12.4906 14.5247C12.4906 14.4843 12.4898 14.4439 12.4872 14.4035V5.50067H14.7516C14.76 5.69244 14.7676 5.88589 14.776 6.07766C14.7911 6.45531 14.9257 6.81781 15.1603 7.11471C15.4352 7.46376 15.8413 7.86917 16.4114 8.19298C16.9454 8.49493 17.4465 8.6253 17.8013 8.6867V8.68502Z" fill="var(--fill-0, #272727)"/>
<path d="M17.8013 8.68502V10.9517C17.4053 10.913 16.8907 10.8231 16.3215 10.6145C15.5782 10.342 15.0249 9.96935 14.6625 9.68086V14.2622L14.6532 14.2479C14.6591 14.3388 14.6625 14.4313 14.6625 14.5247C14.6625 16.7998 12.8118 18.6519 10.5365 18.6519C8.2612 18.6519 6.41052 16.7998 6.41052 14.5247C6.41052 12.2495 8.2612 10.3966 10.5365 10.3966C10.7593 10.3966 10.978 10.4143 11.1915 10.4488V12.6827C10.9864 12.6095 10.7661 12.57 10.5365 12.57C9.4594 12.57 8.5824 13.4464 8.5824 14.5247C8.5824 15.6029 9.4594 16.4793 10.5365 16.4793C11.6136 16.4793 12.4906 15.6021 12.4906 14.5247C12.4906 14.4843 12.4898 14.4439 12.4872 14.4035V5.50067H14.7516C14.76 5.69244 14.7676 5.88589 14.776 6.07766C14.7911 6.45531 14.9257 6.81781 15.1603 7.11471C15.4352 7.46376 15.8413 7.86917 16.4114 8.19298C16.9454 8.49493 17.4465 8.6253 17.8013 8.6867V8.68502Z" fill="var(--fill-1, black)" fill-opacity="0.35"/>
</g>
</g>
</svg>
