<svg preserveAspectRatio="none" width="100%" height="100%" overflow="visible" style="display: block;" viewBox="0 0 28.8323 30.4944" fill="none" xmlns="http://www.w3.org/2000/svg">
<path id="Vector" d="M28.8323 21.1616C28.8323 23.1379 28.2441 24.8285 27.0618 26.2221C25.8794 27.6215 24.2573 28.6896 22.2011 29.4092C20.1507 30.1346 17.7746 30.4944 15.0901 30.4944C13.2738 30.4944 11.4461 30.3117 9.6127 29.9575C7.77355 29.5977 6.16858 29.0665 4.79207 28.3583L3.44982 30.2888H0.759658L0.416939 21.3273H3.31274C3.82108 22.8694 4.98056 24.2516 6.79115 25.4796C8.60745 26.7133 11.2348 27.3245 14.6789 27.3245C15.5471 27.3245 16.4952 27.2617 17.5005 27.136C18.5114 27.0046 19.4824 26.6562 20.4134 26.0793C21.3387 25.5082 21.807 24.6229 21.807 23.4291C21.807 22.3953 21.333 21.6414 20.3791 21.173C19.4253 20.7047 17.6375 20.1335 15.0216 19.4653C11.8516 18.6656 9.25285 17.9003 7.23664 17.1749C5.21472 16.4552 3.50694 15.41 2.10188 14.0563C0.702527 12.697 0 10.9549 0 8.81877C0 6.10574 1.24513 3.96388 3.74112 2.37604C6.23139 0.788206 9.49847 0 13.5423 0C16.0669 0 18.0888 0.205619 19.6024 0.622569C21.1216 1.03381 22.3953 1.48503 23.4292 1.9648L24.2516 0.205619H27.0103V8.1962H24.1831C23.9318 7.25378 23.3606 6.39704 22.4639 5.61454C21.5672 4.83205 20.3791 4.22661 18.8941 3.80395C17.4148 3.38129 15.6956 3.16996 13.7422 3.16996C12.1315 3.16996 10.5323 3.34131 8.93873 3.68401C7.33947 4.02671 6.54555 4.84347 6.54555 6.12859C6.54555 6.65977 6.69976 7.09386 7.00819 7.43655C7.31662 7.77925 7.85351 8.10482 8.60744 8.40182C9.36709 8.69883 10.6979 9.08722 12.6056 9.57271C14.5133 10.0582 15.6499 10.3438 16.0211 10.4352C19.7623 11.3776 22.8351 12.537 25.234 13.9136C27.6329 15.2958 28.8323 17.7061 28.8323 21.1502V21.1616Z" fill="var(--fill-0, white)"/>
</svg>
