<svg preserveAspectRatio="none" width="100%" height="100%" overflow="visible" style="display: block;" viewBox="0 0 18.7113 47.8521" fill="none" xmlns="http://www.w3.org/2000/svg">
<path id="Vector" d="M18.7113 47.8521H0.00571722V44.6822H1.00525C2.33607 44.6822 3.30703 44.4994 3.91818 44.1281C4.52932 43.7626 4.90059 43.2428 5.03767 42.5803C5.17475 41.9177 5.24328 40.941 5.24328 39.6559V29.4207C5.24328 27.9985 5.15759 26.9875 4.98053 26.3878C4.80918 25.7938 4.36369 25.354 3.63831 25.0798C2.91293 24.7999 1.70207 24.6571 0 24.6343V21.4643L14.1249 18.5V39.6559C14.1249 41.5807 14.3648 42.9058 14.8445 43.6141C15.33 44.328 16.6152 44.6822 18.6999 44.6822V47.8521H18.7113ZM14.816 5.02624C14.816 6.40846 14.3305 7.57934 13.3538 8.55603C12.3771 9.53273 11.2005 10.0239 9.82403 10.0239C8.44752 10.0239 7.29378 9.52701 6.29424 8.52748C5.2947 7.52794 4.79779 6.36277 4.79779 5.02624C4.79779 3.68972 5.28897 2.46743 6.27709 1.47931C7.2652 0.491201 8.44752 0 9.82403 0C11.2005 0 12.4114 0.479778 13.3709 1.44504C14.3362 2.41031 14.816 3.60404 14.816 5.02624Z" fill="var(--fill-0, white)"/>
</svg>
