<svg preserveAspectRatio="none" width="100%" height="100%" overflow="visible" style="display: block;" viewBox="0 0 24 24.0071" fill="none" xmlns="http://www.w3.org/2000/svg">
<g id="Group">
<g id="Vector">
<path d="M24 12.0035C24 5.37417 18.6274 0 12 0C5.37259 0 0 5.37417 0 12.0035C0 18.6329 5.37259 24.0071 12 24.0071C18.6274 24.0071 24 18.6329 24 12.0035Z" fill="var(--fill-0, #272727)"/>
<path d="M24 12.0035C24 5.37417 18.6274 0 12 0C5.37259 0 0 5.37417 0 12.0035C0 18.6329 5.37259 24.0071 12 24.0071C18.6274 24.0071 24 18.6329 24 12.0035Z" fill="var(--fill-1, white)" fill-opacity="0.35"/>
</g>
<g id="Vector_2">
<path d="M19.5563 9.51621C19.4619 8.60441 19.2587 7.59645 18.5107 7.06675C17.9314 6.65597 17.17 6.64079 16.4592 6.64163C14.9565 6.64163 13.453 6.64416 11.9504 6.64501C10.5051 6.6467 9.05981 6.64754 7.61451 6.64922C7.01076 6.64922 6.42387 6.60283 5.86312 6.86431C5.38164 7.08868 5.00471 7.51548 4.77788 7.99036C4.46336 8.6508 4.39759 9.39896 4.35965 10.1294C4.28966 11.4596 4.29725 12.7931 4.38073 14.1224C4.44228 15.0924 4.59828 16.1645 5.34791 16.7828C6.01237 17.3302 6.95004 17.3572 7.81182 17.358C10.5473 17.3606 13.2836 17.3631 16.0198 17.3648C16.3706 17.3656 16.7366 17.3589 17.0941 17.3201C17.7974 17.2442 18.4677 17.0426 18.9197 16.5213C19.3759 15.9958 19.4931 15.2645 19.5622 14.572C19.7309 12.8918 19.7292 11.1956 19.5563 9.51621ZM10.3685 14.3586V9.64779L14.4464 12.0028L10.3685 14.3586Z" fill="#272727"/>
<path d="M19.5563 9.51621C19.4619 8.60441 19.2587 7.59645 18.5107 7.06675C17.9314 6.65597 17.17 6.64079 16.4592 6.64163C14.9565 6.64163 13.453 6.64416 11.9504 6.64501C10.5051 6.6467 9.05981 6.64754 7.61451 6.64922C7.01076 6.64922 6.42387 6.60283 5.86312 6.86431C5.38164 7.08868 5.00471 7.51548 4.77788 7.99036C4.46336 8.6508 4.39759 9.39896 4.35965 10.1294C4.28966 11.4596 4.29725 12.7931 4.38073 14.1224C4.44228 15.0924 4.59828 16.1645 5.34791 16.7828C6.01237 17.3302 6.95004 17.3572 7.81182 17.358C10.5473 17.3606 13.2836 17.3631 16.0198 17.3648C16.3706 17.3656 16.7366 17.3589 17.0941 17.3201C17.7974 17.2442 18.4677 17.0426 18.9197 16.5213C19.3759 15.9958 19.4931 15.2645 19.5622 14.572C19.7309 12.8918 19.7292 11.1956 19.5563 9.51621ZM10.3685 14.3586V9.64779L14.4464 12.0028L10.3685 14.3586Z" fill="black" fill-opacity="0.35"/>
</g>
</g>
</svg>
